<svg xmlns="http://www.w3.org/2000/svg" viewBox="0 0 100 100"><g><path d="M70.4,51.5l4-7c0.3,0.3,0.7,0.5,1.1,0.5c0.8,0,1.5-0.7,1.5-1.5S76.4,42,75.5,42c-0.5,0-1,0.3-1.3,0.7l-5,8.7H53.9c0.3-0.5,0.5-1.2,0.5-1.8v-4.3c0-2.1-1.7-3.8-3.8-3.8h-0.2v-3.3c0-2.4,1.3-4.6,3.3-5.8c0.5-0.3,0.6-0.9,0.4-1.4c-0.3-0.5-0.9-0.6-1.4-0.4c-2.7,1.5-4.3,4.4-4.3,7.5v3.3h-0.2c-0.7,0-1.3,0.2-1.8,0.5v-3.7c0-2.1-1.7-3.8-3.8-3.8h-6c-2.4,0-4.6,1.3-5.8,3.3L25,47.7c-0.5,0.9-0.6,1.9-0.4,2.9c0.3,1,0.9,1.8,1.8,2.3c0.6,0.3,1.2,0.5,1.9,0.5h40.9c4.5,0,8.4,3.2,9.2,7.6c0.1,0.5,0.5,0.8,1,0.8c0.1,0,0.1,0,0.2,0c0.5-0.1,0.9-0.6,0.8-1.2C79.5,55.7,75.3,52,70.4,51.5z M32.5,38.8c0.8-1.4,2.4-2.3,4-2.3h4.4c0.3,0.3,0.5,0.7,0.5,1.1v8c0,1.3-1,2.3-2.3,2.3h-9.6c-0.3,0-0.6-0.1-0.8-0.2c-0.4-0.2-0.6-0.6-0.7-1L32.5,38.8z M27.4,51.2c-0.4-0.2-0.7-0.6-0.9-1.1c-0.1-0.5-0.1-1,0.2-1.4l0.5-0.9c0.2,0.3,0.5,0.6,0.8,0.8c0.4,0.2,0.9,0.4,1.3,0.4H39c1.8,0,3.3-1.5,3.3-3.3v-8c0-0.4-0.1-0.8-0.3-1.1h0.4c1,0,1.8,0.8,1.8,1.8v10.2c0,0.6,0.4,1,1,1s1-0.4,1-1v-3.1c0-1,0.8-1.8,1.8-1.8h2.3c1,0,1.8,0.8,1.8,1.8v4.3c0,1-0.8,1.8-1.8,1.8H28.3C28,51.5,27.7,51.4,27.4,51.2z"/><path d="M24.5,55.8c0.5-0.3,0.6-0.9,0.4-1.4c-0.3-0.5-0.9-0.6-1.4-0.4L16.8,58l-3.5-6c-0.1-0.2-0.4-0.4-0.6-0.5c-0.3-0.1-0.5,0-0.8,0.1L9,53.3c0,0-0.1,0.1-0.1,0.1c-0.1,0-0.1,0.1-0.1,0.1c0,0.1-0.1,0.1-0.1,0.2c0,0.1-0.1,0.1-0.1,0.2c0,0.1,0,0.1,0,0.2s0,0.1,0,0.2c0,0.1,0,0.1,0,0.2c0,0.1,0,0.1,0,0.2c2,4.2,0.5,9.1-3.4,11.5c-0.4,0.2-0.6,0.7-0.4,1.1c0.1,0.4,0.5,0.7,1,0.7H12c0.4,0,0.7-0.2,0.9-0.5l4.2-7.4L24.5,55.8z M11.4,65.9H8.5c2.9-3,3.8-7.4,2.3-11.4l1.3-0.7l3.2,5.5L11.4,65.9z"/><path d="M95.2,66.4l-4.6-8c-0.2-0.3-0.5-0.5-0.9-0.5h-6.6c-0.4,0-0.8,0.3-1,0.7c-0.1,0.4,0,0.9,0.4,1.1l11.2,8c0.2,0.1,0.4,0.2,0.6,0.2c0.2,0,0.5-0.1,0.7-0.3C95.4,67.4,95.4,66.8,95.2,66.4z M86.2,59.9h2.9l2,3.5L86.2,59.9z"/><path d="M74.7,59.9l-0.5,0c0-0.1,0-0.2,0-0.3c-0.1-0.5-0.3-0.9-0.6-1.3l0.4-0.4c0.4-0.4,0.4-1,0-1.4c-0.4-0.4-1-0.4-1.4,0l-0.4,0.4c-0.1-0.1-0.2-0.2-0.4-0.3c-0.4-0.2-0.8-0.4-1.2-0.5l0-0.5c0-0.6-0.4-1-0.9-1.1c-0.6,0-1,0.4-1.1,0.9l0,0.5c-0.2,0-0.4,0-0.6,0.1l-1.2,0.3L66.6,56c-0.1-0.5-0.7-0.9-1.2-0.7c-0.5,0.1-0.8,0.7-0.7,1.2l0.1,0.4l-2,0.5L62.7,57c-0.1-0.5-0.7-0.9-1.2-0.7c-0.5,0.1-0.9,0.7-0.7,1.2l0.1,0.4h-2.2v-0.4c0-0.6-0.4-1-1-1s-1,0.4-1,1v0.4h-2.1v-0.4c0-0.6-0.4-1-1-1s-1,0.4-1,1v0.4h-2.1v-0.4c0-0.6-0.4-1-1-1s-1,0.4-1,1v0.4h-2.1v-0.4c0-0.6-0.4-1-1-1s-1,0.4-1,1v0.4h-2.1v-0.4c0-0.6-0.4-1-1-1s-1,0.4-1,1v0.4h-2.1v-0.4c0-0.6-0.4-1-1-1s-1,0.4-1,1v0.4h-2.1v-0.4c0-0.6-0.4-1-1-1s-1,0.4-1,1v0.4h-2l0-0.5c0-0.6-0.5-1-1.1-0.9c-0.6,0-1,0.5-0.9,1.1l0,0.5c-0.6,0.2-1.1,0.4-1.6,0.7l-0.4-0.4c-0.4-0.4-1-0.4-1.4,0c-0.4,0.4-0.4,1,0,1.4l0.4,0.4c-0.3,0.5-0.5,1-0.7,1.6h-5.7c-0.6,0-1,0.4-1,1s0.4,1,1,1h5.7c0.1,0.6,0.4,1.1,0.7,1.6l-0.4,0.4c-0.4,0.4-0.4,1,0,1.4c0.2,0.2,0.5,0.3,0.7,0.3c0.2,0,0.5-0.1,0.7-0.3l0.4-0.4c0.5,0.3,1,0.6,1.6,0.7l0,0.5c0,0.6,0.4,1,0.9,1.1c0,0,0,0,0.1,0c0.5,0,1-0.4,1-0.9l0-0.5h2v0.4c0,0.6,0.4,1,1,1s1-0.4,1-1v-0.4h2.1v0.4c0,0.6,0.4,1,1,1s1-0.4,1-1v-0.4h2.1v0.4c0,0.6,0.4,1,1,1s1-0.4,1-1v-0.4h2.1v0.4c0,0.6,0.4,1,1,1s1-0.4,1-1v-0.4h2.1v0.4c0,0.6,0.4,1,1,1s1-0.4,1-1v-0.4h2.1v0.4c0,0.6,0.4,1,1,1s1-0.4,1-1v-0.4h2.1v0.4c0,0.6,0.4,1,1,1s1-0.4,1-1v-0.4h2.1l0,0.5c0,0.5,0.5,1,1,1h0c0.6,0,1-0.5,1-1l0-0.5h0.1l1.8-0.5l0.1,0.4c0.1,0.4,0.5,0.7,1,0.7c0.1,0,0.2,0,0.3,0c0.5-0.1,0.8-0.7,0.7-1.2l-0.1-0.4l2-0.5l0.1,0.4c0.1,0.4,0.5,0.7,1,0.7c0.1,0,0.2,0,0.3,0c0.5-0.1,0.9-0.7,0.7-1.2l-0.1-0.4l0.1,0c0.6-0.2,1.1-0.4,1.6-0.8l0.4,0.4c0.2,0.2,0.4,0.3,0.7,0.3c0.3,0,0.5-0.1,0.7-0.3c0.4-0.4,0.4-1,0-1.4l-0.4-0.4c0.3-0.5,0.5-1,0.6-1.6l0.5,0h0c0.6,0,1-0.4,1-1C75.7,60.3,75.2,59.9,74.7,59.9z M56.1,65.9c0.8-0.7,1.4-1.8,1.4-3c0-1.2-0.5-2.3-1.4-3h2.8c-0.8,0.7-1.4,1.8-1.4,3c0,1.2,0.5,2.3,1.4,3H56.1z M48.1,65.9c0.8-0.7,1.4-1.8,1.4-3c0-1.2-0.5-2.3-1.4-3h2.8c-0.8,0.7-1.4,1.8-1.4,3c0,1.2,0.5,2.3,1.4,3H48.1z M40.1,65.9c0.8-0.7,1.4-1.8,1.4-3c0-1.2-0.5-2.3-1.4-3h2.8c-0.8,0.7-1.4,1.8-1.4,3c0,1.2,0.5,2.3,1.4,3H40.1z M32.1,65.9c0.8-0.7,1.4-1.8,1.4-3c0-1.2-0.5-2.3-1.4-3h2.8c-0.8,0.7-1.4,1.8-1.4,3c0,1.2,0.5,2.3,1.4,3H32.1z M32.5,62.9c0,1.7-1.3,3-3,3s-3-1.3-3-3s1.3-3,3-3S32.5,61.3,32.5,62.9z M40.5,62.9c0,1.7-1.3,3-3,3s-3-1.3-3-3s1.3-3,3-3S40.5,61.3,40.5,62.9z M48.5,62.9c0,1.7-1.3,3-3,3s-3-1.3-3-3s1.3-3,3-3S48.5,61.3,48.5,62.9z M53.5,65.9c-1.7,0-3-1.3-3-3s1.3-3,3-3s3,1.3,3,3S55.2,65.9,53.5,65.9z M62.2,65.8c-0.2,0.1-0.5,0.1-0.7,0.1c-1.7,0-3-1.3-3-3s1.3-3,3-3s3,1.3,3,3C64.5,64.3,63.5,65.5,62.2,65.8z M64.8,65.2c0.4-0.6,0.7-1.4,0.7-2.2c0-1.6-0.9-2.9-2.2-3.6l2.6-0.7c-0.4,0.6-0.7,1.4-0.7,2.2c0,1.6,0.9,2.9,2.2,3.6L64.8,65.2z M71,63.3c-0.1,0.1-0.1,0.1-0.2,0.1c-0.1,0.1-0.2,0.1-0.3,0.1c-0.1,0-0.2,0.1-0.3,0.1c-0.3,0.1-0.6,0.2-1,0.2c-1.7,0-3-1.3-3-3c0-1.4,1-2.6,2.3-2.9c0.1,0,0.2,0,0.3,0c0.1,0,0.2,0,0.3,0s0.2,0,0.2,0c0.1,0,0.2,0,0.4,0c0.1,0,0.2,0,0.2,0.1c0.1,0,0.2,0.1,0.3,0.1c0.1,0,0.2,0.1,0.3,0.1c0.1,0,0.2,0.1,0.3,0.1c0.1,0.1,0.2,0.1,0.2,0.2c0.1,0.1,0.2,0.1,0.2,0.2c0.1,0.1,0.1,0.1,0.2,0.2c0.1,0.1,0.2,0.2,0.2,0.3c0,0.1,0.1,0.1,0.1,0.2c0.1,0.1,0.1,0.2,0.2,0.3c0,0.1,0.1,0.2,0.1,0.3c0,0.1,0.1,0.2,0.1,0.3c0,0.1,0,0.2,0,0.3c0,0.1,0,0.2,0,0.3c0,0.1,0,0.2,0,0.3c0,0.1,0,0.2,0,0.3c0,0.1,0,0.2-0.1,0.3c0,0.1-0.1,0.2-0.1,0.3c0,0.1-0.1,0.2-0.1,0.3c0,0.1-0.1,0.2-0.1,0.2c-0.1,0.1-0.1,0.2-0.2,0.2c-0.1,0.1-0.1,0.2-0.2,0.2c-0.1,0.1-0.1,0.1-0.2,0.2C71.2,63.2,71.1,63.2,71,63.3z"/><circle cx="29.5" cy="62.9" r="1.4"/><circle cx="37.5" cy="62.9" r="1.4"/><circle cx="45.5" cy="62.9" r="1.4"/><circle cx="53.5" cy="62.9" r="1.4"/><circle cx="61.5" cy="62.9" r="1.4"/><circle cx="69.2" cy="60.9" r="1.4"/><path d="M57.9,49h7.9c0.6,0,1-0.4,1-1s-0.4-1-1-1h-7.9c-0.6,0-1,0.4-1,1S57.3,49,57.9,49z"/></g></svg>
